M48
METRIC,LZ,000.000
;FILE_FORMAT=3:3
;TYPE=PLATED
;Layer: PTH_Through
;EasyEDA v6.5.42, 2024-03-09 14:26:13
;86abbcd208f74741804ea8bf9407674b,eef5abb128bb431e85b49fc667c07292,10
;Gerber Generator version 0.2
;Holesize 1 = 0.310 mm
T01C0.310
;Holesize 2 = 0.501 mm
T02C0.501
;Holesize 3 = 0.901 mm
T03C0.901
;Holesize 4 = 0.915 mm
T04C0.915
;Holesize 5 = 1.000 mm
T05C1.000
;Holesize 6 = 1.200 mm
T06C1.200
;Holesize 7 = 1.301 mm
T07C1.301
%
G05
G90
T01
X035306Y-044705
T02
X014318Y-021097G85X014318Y-019797
X007018Y-021097G85X007018Y-019797
X010193Y-078979G85X010193Y-080279
X017493Y-078979G85X017493Y-080279
X035306Y-045354G85X035306Y-044055
T03
X035687Y-052451
X050927Y-054991
X050927Y-060072
X050927Y-065152
X050927Y-070232
X050927Y-075312
X050927Y-080392
X050927Y-085472
X035687Y-088011
X035687Y-082930
X035687Y-077850
X035687Y-072770
X035687Y-067690
X035687Y-062610
X035687Y-057531
X035687Y-054991
X035687Y-060071
X035687Y-065151
X035687Y-070231
X035687Y-075311
X035687Y-080391
X035687Y-085471
X050927Y-088011
X050927Y-082931
X050927Y-077851
X050927Y-072771
X050927Y-067691
X050927Y-062611
X050927Y-057531
X050927Y-052451
T04
X115570Y-005842
X115570Y-009017
X115570Y-012065
X115570Y-015240
X115570Y-025781
X115570Y-028956
X115570Y-032004
X115570Y-035179
X115570Y-045593
X115570Y-048768
X115570Y-051816
X115570Y-054991
X115697Y-065659
X115697Y-068834
X115697Y-071882
X115697Y-075057
X115697Y-085217
X115697Y-088392
X115697Y-091440
X115697Y-094615
X053721Y-006477
X047117Y-006477
X053721Y-037084
X047117Y-037084
X115697Y-071882
T05
X035334Y-018669
X038834Y-018669
X025936Y-018923
X029436Y-018923
X029432Y-009271
X038132Y-009271
X028670Y-004826
X037370Y-004826
X022479Y-044831
X019939Y-044831
X017399Y-044831
X014859Y-044831
X012319Y-044831
X009779Y-044831
X007239Y-044831
X004699Y-044831
X004699Y-052451
X007239Y-052451
X009779Y-052451
X012319Y-052451
X014859Y-052451
X017399Y-052451
X019939Y-052451
X022479Y-052451
T06
X030226Y-028834
X027686Y-028824
X032766Y-028834
T07
X057440Y-047752
X062448Y-047752
M30
