G04 Layer: BottomSolderMaskLayer*
G04 EasyEDA v6.5.42, 2024-03-09 14:26:13*
G04 86abbcd208f74741804ea8bf9407674b,eef5abb128bb431e85b49fc667c07292,10*
G04 Gerber Generator version 0.2*
G04 Scale: 100 percent, Rotated: No, Reflected: No *
G04 Dimensions in millimeters *
G04 leading zeros omitted , absolute positions ,4 integer and 5 decimal *
%FSLAX45Y45*%
%MOMM*%

%AMMACRO1*1,1,$1,$2,$3*1,1,$1,$4,$5*1,1,$1,0-$2,0-$3*1,1,$1,0-$4,0-$5*20,1,$1,$2,$3,$4,$5,0*20,1,$1,$4,$5,0-$2,0-$3,0*20,1,$1,0-$2,0-$3,0-$4,0-$5,0*20,1,$1,0-$4,0-$5,$2,$3,0*4,1,4,$2,$3,$4,$5,0-$2,0-$3,0-$4,0-$5,$2,$3,0*%
%ADD10O,1.9015964X3.101594*%
%ADD11C,1.7016*%
%ADD12C,1.9016*%
%ADD13MACRO1,0.1016X0.762X0.762X0.762X-0.762*%
%ADD14C,2.1016*%
%ADD15R,1.7016X1.7016*%
%ADD16O,1.9015964X2.7015948*%
%ADD17MACRO1,0.1016X0.9X-1.3X-0.9X-1.3*%
%ADD18MACRO1,0.1016X1.5X2.5X1.5X-2.5*%
%ADD19C,1.6256*%

%LPD*%
D10*
G01*
X1431797Y-2044700D03*
G01*
X701801Y-2044700D03*
G01*
X1019301Y-7962900D03*
G01*
X1749297Y-7962900D03*
D11*
G01*
X3533393Y-1866900D03*
G01*
X3883405Y-1866900D03*
G01*
X2593593Y-1892300D03*
G01*
X2943605Y-1892300D03*
D12*
G01*
X2943199Y-927100D03*
G01*
X3813200Y-927100D03*
G01*
X2866999Y-482600D03*
G01*
X3737000Y-482600D03*
D13*
G01*
X11557002Y-584200D03*
G01*
X11557002Y-901700D03*
G01*
X11557002Y-1206497D03*
G01*
X11557002Y-1523997D03*
G01*
X11557002Y-2578100D03*
G01*
X11557002Y-2895600D03*
G01*
X11557002Y-3200397D03*
G01*
X11557002Y-3517897D03*
G01*
X11557002Y-4559300D03*
G01*
X11557002Y-4876800D03*
G01*
X11557002Y-5181597D03*
G01*
X11557002Y-5499097D03*
G01*
X11569702Y-6565900D03*
G01*
X11569702Y-6883400D03*
G01*
X11569702Y-7188197D03*
G01*
X11569702Y-7505697D03*
G01*
X11569702Y-8521700D03*
G01*
X11569702Y-8839200D03*
G01*
X11569702Y-9143997D03*
G01*
X11569702Y-9461497D03*
D14*
G01*
X5743955Y-4775200D03*
G01*
X6244843Y-4775200D03*
D15*
G01*
X3568700Y-5245100D03*
D11*
G01*
X5092700Y-5499100D03*
G01*
X5092700Y-6007100D03*
G01*
X5092700Y-6515100D03*
G01*
X5092700Y-7023100D03*
G01*
X5092700Y-7531100D03*
G01*
X5092700Y-8039100D03*
G01*
X5092700Y-8547100D03*
G01*
X3568700Y-8801100D03*
G01*
X3568700Y-8293100D03*
G01*
X3568700Y-7785100D03*
G01*
X3568700Y-7277100D03*
G01*
X3568700Y-6769100D03*
G01*
X3568700Y-6261100D03*
G01*
X3568700Y-5753100D03*
G01*
X3568700Y-5499100D03*
G01*
X3568700Y-6007100D03*
G01*
X3568700Y-6515100D03*
G01*
X3568700Y-7023100D03*
G01*
X3568700Y-7531100D03*
G01*
X3568700Y-8039100D03*
G01*
X3568700Y-8547100D03*
G01*
X5092700Y-8801100D03*
G01*
X5092700Y-8293100D03*
G01*
X5092700Y-7785100D03*
G01*
X5092700Y-7277100D03*
G01*
X5092700Y-6769100D03*
G01*
X5092700Y-6261100D03*
G01*
X5092700Y-5753100D03*
D15*
G01*
X5092700Y-5245100D03*
D11*
G01*
X2247900Y-4483100D03*
G01*
X1993900Y-4483100D03*
G01*
X1739900Y-4483100D03*
G01*
X1485900Y-4483100D03*
G01*
X1231900Y-4483100D03*
G01*
X977900Y-4483100D03*
G01*
X723900Y-4483100D03*
G01*
X469900Y-4483100D03*
G01*
X469900Y-5245100D03*
G01*
X723900Y-5245100D03*
G01*
X977900Y-5245100D03*
G01*
X1231900Y-5245100D03*
G01*
X1485900Y-5245100D03*
G01*
X1739900Y-5245100D03*
G01*
X1993900Y-5245100D03*
G01*
X2247900Y-5245100D03*
D16*
G01*
X3022625Y-2883407D03*
G01*
X2768600Y-2882417D03*
D17*
G01*
X3276612Y-2883395D03*
D18*
G01*
X5372100Y-647699D03*
G01*
X4711700Y-647699D03*
G01*
X5372100Y-3708399D03*
G01*
X4711700Y-3708399D03*
D10*
G01*
X3530625Y-4470450D03*
D19*
G01*
X11569700Y-7188200D03*
M02*
