G04 Layer: TopLayer*
G04 EasyEDA v6.5.42, 2024-03-09 14:26:13*
G04 86abbcd208f74741804ea8bf9407674b,eef5abb128bb431e85b49fc667c07292,10*
G04 Gerber Generator version 0.2*
G04 Scale: 100 percent, Rotated: No, Reflected: No *
G04 Dimensions in millimeters *
G04 leading zeros omitted , absolute positions ,4 integer and 5 decimal *
%FSLAX45Y45*%
%MOMM*%

%ADD10C,0.2540*%
%ADD11O,1.7999964X2.999994*%
%ADD12C,1.6000*%
%ADD13C,1.8000*%
%ADD14R,1.5240X1.5240*%
%ADD15C,2.0000*%
%ADD16R,1.6000X1.6000*%
%ADD17O,1.7999964X2.5999948*%
%ADD18R,1.8000X2.6000*%
%ADD19R,3.0000X5.0000*%
%ADD20C,1.5240*%
%ADD21C,0.6200*%

%LPD*%
D10*
G75*
G01
X15290800Y-419100D02*
G03X15290800Y-419100I-101600J0D01*
G75*
G01
X15290800Y-2413000D02*
G03X15290800Y-2413000I-101600J0D01*
G75*
G01
X15290800Y-4394200D02*
G03X15290800Y-4394200I-101600J0D01*
G75*
G01
X15303500Y-6400800D02*
G03X15303500Y-6400800I-101600J0D01*
G75*
G01
X15303500Y-8356600D02*
G03X15303500Y-8356600I-101600J0D01*
D11*
G01*
X1431797Y-2044700D03*
G01*
X701801Y-2044700D03*
G01*
X1019301Y-7962900D03*
G01*
X1749297Y-7962900D03*
D12*
G01*
X3533393Y-1866900D03*
G01*
X3883405Y-1866900D03*
G01*
X2593593Y-1892300D03*
G01*
X2943605Y-1892300D03*
D13*
G01*
X2943199Y-927100D03*
G01*
X3813200Y-927100D03*
G01*
X2866999Y-482600D03*
G01*
X3737000Y-482600D03*
D14*
G01*
X11557000Y-584200D03*
G01*
X11557000Y-901700D03*
G01*
X11557000Y-1206500D03*
G01*
X11557000Y-1524000D03*
G01*
X11557000Y-2578100D03*
G01*
X11557000Y-2895600D03*
G01*
X11557000Y-3200400D03*
G01*
X11557000Y-3517900D03*
G01*
X11557000Y-4559300D03*
G01*
X11557000Y-4876800D03*
G01*
X11557000Y-5181600D03*
G01*
X11557000Y-5499100D03*
G01*
X11569700Y-6565900D03*
G01*
X11569700Y-6883400D03*
G01*
X11569700Y-7188200D03*
G01*
X11569700Y-7505700D03*
G01*
X11569700Y-8521700D03*
G01*
X11569700Y-8839200D03*
G01*
X11569700Y-9144000D03*
G01*
X11569700Y-9461500D03*
D15*
G01*
X5743955Y-4775200D03*
G01*
X6244843Y-4775200D03*
D16*
G01*
X3568700Y-5245100D03*
D12*
G01*
X5092700Y-5499100D03*
G01*
X5092700Y-6007100D03*
G01*
X5092700Y-6515100D03*
G01*
X5092700Y-7023100D03*
G01*
X5092700Y-7531100D03*
G01*
X5092700Y-8039100D03*
G01*
X5092700Y-8547100D03*
G01*
X3568700Y-8801100D03*
G01*
X3568700Y-8293100D03*
G01*
X3568700Y-7785100D03*
G01*
X3568700Y-7277100D03*
G01*
X3568700Y-6769100D03*
G01*
X3568700Y-6261100D03*
G01*
X3568700Y-5753100D03*
G01*
X3568700Y-5499100D03*
G01*
X3568700Y-6007100D03*
G01*
X3568700Y-6515100D03*
G01*
X3568700Y-7023100D03*
G01*
X3568700Y-7531100D03*
G01*
X3568700Y-8039100D03*
G01*
X3568700Y-8547100D03*
G01*
X5092700Y-8801100D03*
G01*
X5092700Y-8293100D03*
G01*
X5092700Y-7785100D03*
G01*
X5092700Y-7277100D03*
G01*
X5092700Y-6769100D03*
G01*
X5092700Y-6261100D03*
G01*
X5092700Y-5753100D03*
D16*
G01*
X5092700Y-5245100D03*
D12*
G01*
X2247900Y-4483100D03*
G01*
X1993900Y-4483100D03*
G01*
X1739900Y-4483100D03*
G01*
X1485900Y-4483100D03*
G01*
X1231900Y-4483100D03*
G01*
X977900Y-4483100D03*
G01*
X723900Y-4483100D03*
G01*
X469900Y-4483100D03*
G01*
X469900Y-5245100D03*
G01*
X723900Y-5245100D03*
G01*
X977900Y-5245100D03*
G01*
X1231900Y-5245100D03*
G01*
X1485900Y-5245100D03*
G01*
X1739900Y-5245100D03*
G01*
X1993900Y-5245100D03*
G01*
X2247900Y-5245100D03*
D17*
G01*
X3022625Y-2883407D03*
G01*
X2768600Y-2882417D03*
D18*
G01*
X3276600Y-2883407D03*
D19*
G01*
X5372100Y-647700D03*
G01*
X4711700Y-647700D03*
G01*
X5372100Y-3708400D03*
G01*
X4711700Y-3708400D03*
D11*
G01*
X3530625Y-4470450D03*
D20*
G01*
X11569700Y-7188200D03*
D21*
G01*
X3530625Y-4470450D03*
M02*
